<svg width="20" height="20" viewBox="0 0 20 20" fill="none" xmlns="http://www.w3.org/2000/svg">
<path fill-rule="evenodd" clip-rule="evenodd" d="M0.000106812 9.99951C0.000106812 4.48051 4.48011 -0.000488281 10.0001 -0.000488281C15.5301 -0.000488281 20.0001 4.48051 20.0001 9.99951C20.0001 15.5205 15.5301 19.9995 10.0001 19.9995C4.48011 19.9995 0.000106812 15.5205 0.000106812 9.99951ZM9.12011 6.20951C9.12011 5.73051 9.52011 5.32951 10.0001 5.32951C10.4801 5.32951 10.8701 5.73051 10.8701 6.20951V10.6295C10.8701 11.1105 10.4801 11.4995 10.0001 11.4995C9.52011 11.4995 9.12011 11.1105 9.12011 10.6295V6.20951ZM10.0101 14.6805C9.52011 14.6805 9.13011 14.2805 9.13011 13.8005C9.13011 13.3205 9.52011 12.9305 10.0001 12.9305C10.4901 12.9305 10.8801 13.3205 10.8801 13.8005C10.8801 14.2805 10.4901 14.6805 10.0101 14.6805Z" fill="#6D5ABF"/>
</svg>
