<svg width="20" height="24" viewBox="0 0 20 24" fill="none" xmlns="http://www.w3.org/2000/svg">
<path d="M19.498 9.5C19.498 4.253 15.2445 0 9.99798 0C4.75098 0 0.497981 4.253 0.497981 9.5C0.497981 9.5145 0.499981 9.5295 0.499981 9.544C0.495981 9.6505 0.491481 9.9645 0.545981 10.4575C0.547481 10.4745 0.550481 10.4915 0.552481 10.509C0.575981 10.711 0.610481 10.9415 0.657481 11.197C0.683981 11.3425 0.712981 11.4865 0.745981 11.629C1.33998 14.286 3.33948 19.084 9.99598 23.995C9.99648 23.997 9.99698 23.998 9.99748 24C9.99798 23.999 9.99898 23.999 9.99998 23.998C10.0005 23.999 10.0015 23.999 10.002 24C10.0025 23.998 10.003 23.997 10.0035 23.995C16.7505 19.0165 18.7125 14.156 19.2765 11.5225C19.2905 11.456 19.3055 11.3895 19.318 11.3225C19.544 10.1755 19.498 9.5 19.498 9.5ZM5.53098 15C4.95198 15 4.48198 14.531 4.48198 13.9525C4.48198 13.372 4.95198 12.9015 5.53098 12.9015C6.11048 12.9015 6.57948 13.3715 6.57948 13.9525C6.57898 14.531 6.10998 15 5.53098 15ZM10.461 13.9525H7.53048C7.53898 13.8755 7.55298 13.8045 7.55298 13.7265C7.55298 12.636 6.66998 11.7535 5.58048 11.7535C4.49048 11.7535 3.60748 12.636 3.60748 13.7265C3.60748 13.8045 3.62098 13.8755 3.62998 13.9525H2.60848V6.2325C2.60848 4.1925 4.04598 3.509 4.72798 3.2985C4.75398 3.2925 5.11048 3.2125 5.92698 3.2125H10.461V13.9525ZM14.495 14.9595C13.915 14.9595 13.445 14.4905 13.445 13.9115C13.445 13.3315 13.9145 12.8605 14.495 12.8605C15.073 12.8605 15.544 13.331 15.544 13.9115C15.544 14.4905 15.073 14.9595 14.495 14.9595ZM17.3915 13.9595H16.5185C16.5185 12.8155 15.59 11.888 14.4455 11.888C13.3 11.888 12.373 12.815 12.3715 13.9595H11.4985V11.0635V10.4395V5.045H11.969C11.969 5.045 12.801 5.0445 13.5295 5.207C13.5755 5.2175 13.624 5.2305 13.671 5.2435C13.7275 5.2585 13.786 5.2715 13.839 5.288C14.513 5.491 15.2745 5.863 15.8685 6.543C16.9985 7.838 17.296 9.264 17.3685 10.439H17.392V13.9595H17.3915Z" fill="#6D5ABF"/>
</svg>
