<svg width="31" height="31" viewBox="0 0 31 31" fill="none" xmlns="http://www.w3.org/2000/svg">
<path d="M29.2593 1.76547C28.5298 1.01679 27.4502 0.737865 26.4435 1.03147L2.96934 7.85772C1.90724 8.15279 1.15443 8.99984 0.951643 10.0759C0.744475 11.171 1.4681 12.5612 2.41349 13.1426L9.75337 17.6538C10.5062 18.1162 11.4778 18.0002 12.1008 17.3719L20.5057 8.91469C20.9288 8.47429 21.6291 8.47429 22.0522 8.91469C22.4752 9.34041 22.4752 10.0304 22.0522 10.4708L13.6327 18.9295C13.0082 19.5563 12.8915 20.5325 13.3511 21.29L17.8358 28.7035C18.3611 29.5843 19.2656 30.0834 20.2577 30.0834C20.3744 30.0834 20.5057 30.0834 20.6224 30.0687C21.7604 29.9219 22.6649 29.1439 23.0005 28.0429L29.9596 4.59874C30.2659 3.60049 29.9887 2.51416 29.2593 1.76547Z" fill="#6D5ABF"/>
</svg>
