<svg width="24" height="24" viewBox="0 0 24 24" fill="none" xmlns="http://www.w3.org/2000/svg">
<path d="M20 4H4C2.34315 4 1 5.34315 1 7V17C1 18.6569 2.34315 20 4 20H20C21.6569 20 23 18.6569 23 17V7C23 5.34315 21.6569 4 20 4Z" fill="#6D5ABF"/>
<path d="M14.528 13.624C14.528 14.024 14.428 14.4 14.228 14.752C14.036 15.104 13.748 15.4 13.364 15.64C12.988 15.88 12.54 16.024 12.02 16.072V17.044H11.24V16.072C10.488 16 9.88 15.764 9.416 15.364C8.952 14.964 8.72 14.436 8.72 13.78H10.184C10.208 14.092 10.308 14.352 10.484 14.56C10.66 14.76 10.912 14.888 11.24 14.944V12.304C10.704 12.168 10.268 12.032 9.932 11.896C9.596 11.752 9.308 11.528 9.068 11.224C8.836 10.92 8.72 10.504 8.72 9.976C8.72 9.312 8.952 8.764 9.416 8.332C9.88 7.892 10.488 7.636 11.24 7.564V6.592H12.02V7.564C12.724 7.628 13.288 7.852 13.712 8.236C14.144 8.612 14.388 9.132 14.444 9.796H12.98C12.956 9.548 12.86 9.328 12.692 9.136C12.524 8.936 12.3 8.8 12.02 8.728V11.32C12.556 11.448 12.992 11.584 13.328 11.728C13.664 11.864 13.948 12.084 14.18 12.388C14.412 12.684 14.528 13.096 14.528 13.624ZM10.112 9.904C10.112 10.232 10.208 10.488 10.4 10.672C10.6 10.856 10.88 11.004 11.24 11.116V8.692C10.896 8.732 10.62 8.856 10.412 9.064C10.212 9.272 10.112 9.552 10.112 9.904ZM12.02 14.944C12.372 14.888 12.648 14.748 12.848 14.524C13.048 14.292 13.148 14.016 13.148 13.696C13.148 13.376 13.048 13.128 12.848 12.952C12.656 12.768 12.38 12.62 12.02 12.508V14.944Z" fill="white"/>
</svg>
