<svg width="20" height="20" viewBox="0 0 20 20" fill="none" xmlns="http://www.w3.org/2000/svg">
<path d="M19.2241 9.4904L10.6659 0.932174C10.0737 0.340014 9.25428 0 8.4162 0H1.8182C0.815881 0 0 0.815413 0 1.8182V8.41577C0 9.26494 0.331151 10.0644 0.932174 10.6659L9.4904 19.2241C9.99111 19.7244 10.657 20 11.3636 20C12.0703 20 12.7361 19.7243 13.2368 19.2241L19.224 13.2369C19.7248 12.7371 20 12.0716 20 11.3637C20 10.6557 19.7248 9.99022 19.2241 9.4904ZM3.63635 5.45455C2.63404 5.45455 1.81815 4.63914 1.81815 3.63635C1.81815 2.63357 2.63404 1.81815 3.63635 1.81815C4.63867 1.81815 5.45455 2.63357 5.45455 3.63635C5.45455 4.63914 4.63867 5.45455 3.63635 5.45455ZM14.3502 14.3506C14.2614 14.4393 14.1451 14.4837 14.0288 14.4837C13.9125 14.4837 13.7962 14.4393 13.7074 14.3506L13.386 14.0292L12.4219 14.9934C12.3331 15.0821 12.2168 15.1265 12.1005 15.1265C11.9842 15.1265 11.8679 15.0821 11.7791 14.9934C11.6015 14.8158 11.6015 14.5281 11.7791 14.3506L13.0646 13.0651C13.5964 12.5333 13.5964 11.6682 13.0646 11.1364C12.5497 10.6215 11.6513 10.6215 11.1364 11.1364C10.277 11.9958 8.78016 11.9949 7.92256 11.1364C7.14657 10.3604 7.05047 9.15802 7.63368 8.27609L7.27978 7.92218C7.10221 7.74461 7.10221 7.45697 7.27978 7.27944C7.45735 7.10187 7.74499 7.10187 7.92252 7.27944L8.24391 7.60083L9.20805 6.63669C9.38562 6.45912 9.67326 6.45912 9.85079 6.63669C10.0284 6.81427 10.0284 7.10191 9.85079 7.27944L8.56535 8.56492C8.03357 9.0967 8.03357 9.96184 8.56535 10.4936C9.08025 11.009 9.97871 11.009 10.4936 10.4936C11.3796 9.60759 12.8214 9.60759 13.7074 10.4936C14.4834 11.2696 14.5795 12.472 13.9963 13.3539L14.3502 13.7078C14.5277 13.8854 14.5277 14.173 14.3502 14.3506Z" fill="#6D5ABF"/>
</svg>
