<svg width="24" height="24" viewBox="0 0 24 24" fill="none" xmlns="http://www.w3.org/2000/svg">
<path fill-rule="evenodd" clip-rule="evenodd" d="M10.9746 0.0331021C10.9192 0.0561807 10.8558 0.102948 10.8338 0.137003C10.8119 0.171058 10.7833 0.726211 10.7704 1.37072L10.7469 2.54248L10.1368 2.66584C8.60406 2.97581 7.14464 3.66179 5.97003 4.62457C5.51848 4.99467 4.70772 5.83681 4.3778 6.2784C3.52889 7.41478 2.95024 8.70765 2.65843 10.1199L2.52759 10.7532L1.3475 10.7766C0.296315 10.7975 0.158294 10.8092 0.0837228 10.8838C0.00849429 10.9591 0 11.0718 0 11.9962C0 12.9207 0.00849429 13.0333 0.0837228 13.1086C0.158294 13.1832 0.296315 13.1949 1.3475 13.2158L2.52759 13.2393L2.65843 13.8725C2.95024 15.2848 3.52889 16.5776 4.3778 17.714C4.70772 18.1556 5.51848 18.9978 5.97003 19.3679C7.14464 20.3306 8.60406 21.0166 10.1368 21.3266L10.7469 21.4499L10.7704 22.6319C10.7913 23.6843 10.803 23.823 10.8775 23.8975C10.9514 23.9712 11.0744 23.9828 11.9189 23.9955C12.7204 24.0075 12.9 23.9978 13.0202 23.9357C13.0992 23.8949 13.1682 23.8567 13.1735 23.8509C13.1788 23.8451 13.1947 23.3036 13.2087 22.6475L13.2342 21.4547L13.8556 21.3264C15.7355 20.9384 17.2539 20.1337 18.623 18.8C20.0422 17.4176 20.9336 15.7843 21.3253 13.8491L21.4487 13.2393L22.6445 13.2138C23.3022 13.1998 23.8451 13.1839 23.8509 13.1786C23.8567 13.1733 23.8948 13.1043 23.9357 13.0254C23.9978 12.9052 24.0075 12.7257 23.9955 11.9246C23.9828 11.0805 23.9712 10.9575 23.8974 10.8837C23.8229 10.8092 23.6841 10.7975 22.6312 10.7766L21.4487 10.7532L21.3253 10.1434C21.0386 8.72665 20.4574 7.4221 19.6034 6.2784C19.2478 5.80214 18.3981 4.93294 17.8978 4.53357C16.7525 3.61948 15.2804 2.94312 13.7974 2.64961L13.2342 2.53812L13.2107 1.35839C13.1899 0.308075 13.1781 0.169463 13.1036 0.0949733C13.0294 0.0207653 12.9097 0.0101642 12.0476 0.00120481C11.5129 -0.0043772 11.0301 0.00997656 10.9746 0.0331021ZM13.4078 5.09904C16.1875 5.68825 18.2723 7.78559 18.8995 10.6237C19.0362 11.2424 19.0481 12.6571 18.9217 13.2627C18.3158 16.165 16.2308 18.2875 13.3838 18.9001C12.741 19.0385 11.3328 19.0511 10.7235 18.9241C7.7841 18.311 5.63425 16.1677 5.06124 13.279C4.94326 12.6843 4.94382 11.3866 5.06232 10.7532C5.35652 9.18039 6.15728 7.76842 7.35282 6.71417C8.28879 5.88887 9.54055 5.28334 10.7235 5.08366C10.9687 5.04228 11.2221 4.99894 11.2866 4.98735C11.5877 4.93332 12.9691 5.00607 13.4078 5.09904ZM11.5433 8.71248C10.813 8.81357 10.2033 9.12804 9.64248 9.693C8.98767 10.3526 8.69257 11.0681 8.69257 11.9962C8.69257 12.5882 8.77644 12.9442 9.04624 13.4973C9.20444 13.8215 9.32002 13.9752 9.66533 14.3203C10.0091 14.664 10.1658 14.782 10.4888 14.9404C11.0026 15.1924 11.4307 15.2928 11.9906 15.2928C12.5504 15.2928 12.9786 15.1924 13.4923 14.9404C13.8153 14.782 13.972 14.664 14.3158 14.3203C14.6596 13.9768 14.7776 13.8201 14.9361 13.4973C15.1882 12.9838 15.2887 12.5558 15.2887 11.9962C15.2887 11.4366 15.1882 11.0087 14.9361 10.4952C14.7776 10.1723 14.6596 10.0157 14.3158 9.67208C13.9705 9.32693 13.8167 9.2114 13.4923 9.05327C12.8567 8.74349 12.1774 8.62472 11.5433 8.71248Z" fill="#6D5ABF"/>
</svg>
