<svg width="24" height="24" viewBox="0 0 24 24" fill="none" xmlns="http://www.w3.org/2000/svg">
<g clip-path="url(#clip0_21:4843)">
<path d="M23.8818 12.3136L21.2824 8.48492L23.8818 4.6562C24.0033 4.47357 24.0329 4.24562 23.9621 4.03825C23.8907 3.83087 23.7273 3.66813 23.5193 3.5995L15.0349 0.787023C14.7314 0.684695 14.4032 0.800054 14.2274 1.06372L12 4.4049L9.77248 1.06372C9.59534 0.798695 9.26436 0.683992 8.96497 0.787023L0.480667 3.5995C0.272637 3.66817 0.109186 3.83092 0.0377956 4.03825C-0.0329382 4.24562 -0.00340717 4.47357 0.118139 4.65624L2.71752 8.48496L0.118186 12.3136C-0.0033603 12.4963 -0.0328913 12.7243 0.0378425 12.9316C0.109232 13.139 0.272684 13.3018 0.480714 13.3704L8.96502 16.1829C9.26361 16.2833 9.59576 16.1712 9.77253 15.9062L12 12.565L14.2275 15.9062C14.4044 16.1715 14.7367 16.2832 15.035 16.1829L23.5193 13.3704C23.7273 13.3017 23.8908 13.139 23.9622 12.9316C24.0329 12.7243 24.0034 12.4963 23.8818 12.3136ZM12 10.5565L5.78523 8.48496L12 6.41339L18.2148 8.48496L12 10.5565Z" fill="#6D5ABF"/>
<path d="M15.4799 17.517C14.5949 17.8139 13.5944 17.4919 13.0575 16.6861L12.0001 15.1001L10.9426 16.6861C10.4068 17.4904 9.40737 17.8153 8.51671 17.5156L2.8595 15.63V19.7348C2.8595 20.0376 3.05314 20.3061 3.34015 20.4016L11.7735 23.2127C11.7989 23.2216 11.8243 23.2285 11.8497 23.234C11.8497 23.234 11.8504 23.234 11.8504 23.2347H11.8511C11.9005 23.245 11.9507 23.2505 12.0001 23.2505C12.053 23.2505 12.1052 23.2443 12.1573 23.2326C12.1807 23.2271 12.2033 23.2209 12.226 23.2134L20.66 20.4016C20.947 20.3061 21.1406 20.0376 21.1406 19.7348V15.6301L15.4799 17.517Z" fill="#6D5ABF"/>
</g>
<defs>
<clipPath id="clip0_21:4843">
<rect width="24" height="24" fill="white"/>
</clipPath>
</defs>
</svg>
