<svg width="36" height="36" viewBox="0 0 36 36" fill="none" xmlns="http://www.w3.org/2000/svg">
<circle cx="18" cy="18" r="17" fill="#3810E7" stroke="white" stroke-width="2"/>
<path fill-rule="evenodd" clip-rule="evenodd" d="M22.5334 13.197C22.5667 13.2553 22.6251 13.2969 22.7001 13.2969C24.7001 13.2969 26.3334 14.9284 26.3334 16.9262V21.8707C26.3334 23.8685 24.7001 25.5 22.7001 25.5H13.3001C11.2917 25.5 9.66675 23.8685 9.66675 21.8707V16.9262C9.66675 14.9284 11.2917 13.2969 13.3001 13.2969C13.3667 13.2969 13.4334 13.2636 13.4584 13.197L13.5084 13.0971C13.5371 13.0366 13.5666 12.9745 13.5966 12.9115C13.8097 12.4625 14.0456 11.9657 14.1917 11.6737C14.5751 10.9245 15.2251 10.5083 16.0334 10.5H19.9584C20.7667 10.5083 21.4251 10.9245 21.8084 11.6737C21.9397 11.9359 22.1397 12.3583 22.3324 12.7654C22.3722 12.8494 22.4116 12.9327 22.4501 13.0139L22.5334 13.197ZM21.9251 16.3935C21.9251 16.8097 22.2584 17.1426 22.6751 17.1426C23.0917 17.1426 23.4334 16.8097 23.4334 16.3935C23.4334 15.9772 23.0917 15.636 22.6751 15.636C22.2584 15.636 21.9251 15.9772 21.9251 16.3935ZM16.5584 17.6837C16.9501 17.2925 17.4584 17.0844 18.0001 17.0844C18.5417 17.0844 19.0501 17.2925 19.4334 17.6754C19.8167 18.0583 20.0251 18.566 20.0251 19.1071C20.0167 20.2225 19.1167 21.1299 18.0001 21.1299C17.4584 21.1299 16.9501 20.9218 16.5667 20.5388C16.1834 20.1559 15.9751 19.6482 15.9751 19.1071V19.0988C15.9667 18.5744 16.1751 18.0666 16.5584 17.6837ZM20.3084 21.4212C19.7167 22.0122 18.9001 22.3785 18.0001 22.3785C17.1251 22.3785 16.3084 22.0372 15.6834 21.4212C15.0667 20.7969 14.7251 19.9811 14.7251 19.1071C14.7167 18.2414 15.0584 17.4256 15.6751 16.8013C16.3001 16.177 17.1251 15.8357 18.0001 15.8357C18.8751 15.8357 19.7001 16.177 20.3167 16.793C20.9334 17.4173 21.2751 18.2414 21.2751 19.1071C21.2667 20.0144 20.9001 20.8302 20.3084 21.4212Z" fill="white"/>
</svg>
