<svg width="31" height="25" viewBox="0 0 31 25" fill="none" xmlns="http://www.w3.org/2000/svg">
<path d="M30.8125 3.41831C29.6853 3.89655 28.4759 4.22089 27.2051 4.36569C28.5027 3.62171 29.4959 2.44166 29.9666 1.03986C28.7495 1.72883 27.4061 2.22911 25.9746 2.50031C24.8283 1.32941 23.1978 0.600098 21.3893 0.600098C17.9198 0.600098 15.1067 3.29373 15.1067 6.61405C15.1067 7.08496 15.1621 7.54489 15.2693 7.9847C10.0488 7.73363 5.41953 5.3387 2.32125 1.69951C1.77965 2.58641 1.47155 3.61984 1.47155 4.72299C1.47155 6.81012 2.58151 8.65168 4.26559 9.7291C3.23599 9.69613 2.26765 9.42493 1.41991 8.97415V9.04928C1.41991 11.9628 3.58623 14.3944 6.45868 14.9478C5.9324 15.0834 5.37744 15.1585 4.80333 15.1585C4.39764 15.1585 4.00532 15.1201 3.62066 15.0467C4.42056 17.438 6.74001 19.177 9.48811 19.2246C7.339 20.8372 4.62918 21.7955 1.68593 21.7955C1.17881 21.7955 0.679302 21.7662 0.1875 21.7131C2.96812 23.4227 6.26927 24.4195 9.81728 24.4195C21.3741 24.4195 27.6913 15.2538 27.6913 7.30489L27.6702 6.52613C28.9045 5.68316 29.9724 4.62404 30.8125 3.41831Z" fill="#6D5ABF"/>
</svg>
