<svg width="20" height="20" viewBox="0 0 20 20" fill="none" xmlns="http://www.w3.org/2000/svg">
<path fill-rule="evenodd" clip-rule="evenodd" d="M14.3344 0H5.66543C2.26785 0 0.000427246 2.4326 0.000427246 5.916V14.084C0.000427246 17.5707 2.2618 20 5.66543 20H14.3334C17.738 20 20.0004 17.5707 20.0004 14.084V5.916C20.0004 2.4295 17.7382 0 14.3344 0ZM5.66543 1.5H14.3344C16.8849 1.5 18.5004 3.23496 18.5004 5.916V14.084C18.5004 16.7652 16.8848 18.5 14.3334 18.5H5.66543C3.11519 18.5 1.50043 16.7653 1.50043 14.084V5.916C1.50043 3.23837 3.12077 1.5 5.66543 1.5ZM14.0903 7.09667C13.7974 6.80378 13.3225 6.80378 13.0296 7.09667L8.81303 11.3118L6.97015 9.46956L6.88601 9.39696C6.59235 9.17916 6.1757 9.20346 5.90949 9.46978C5.61665 9.76274 5.61675 10.2376 5.90971 10.5304L8.28371 12.9034L8.36783 12.976C8.66144 13.1938 9.07803 13.1696 9.34426 12.9033L14.0903 8.15733L14.1629 8.07321C14.3807 7.7796 14.3565 7.36294 14.0903 7.09667Z" fill="#B0A9C3"/>
</svg>
