<svg width="34" height="30" viewBox="0 0 34 30" fill="none" xmlns="http://www.w3.org/2000/svg">
<path fill-rule="evenodd" clip-rule="evenodd" d="M26.6149 8.96967H33.6667C33.6667 3.30766 30.2741 0 24.526 0H9.47412C3.72597 0 0.333374 3.30766 0.333374 8.89745V21.1026C0.333374 26.6923 3.72597 30 9.47412 30H24.526C30.2741 30 33.6667 26.6923 33.6667 21.1026V20.5826H26.6149C23.3421 20.5826 20.6889 17.9959 20.6889 14.805C20.6889 11.6141 23.3421 9.02744 26.6149 9.02744V8.96967ZM26.6149 11.454H32.4223C33.1096 11.454 33.6667 11.9972 33.6667 12.6673V16.8849C33.6587 17.5518 33.1062 18.0904 32.4223 18.0982H26.7482C25.0913 18.12 23.6425 17.014 23.2667 15.4405C23.0785 14.4638 23.3427 13.4559 23.9885 12.687C24.6343 11.9181 25.5956 11.4668 26.6149 11.454ZM26.8667 15.8883H27.4149C28.1185 15.8883 28.6889 15.3322 28.6889 14.6461C28.6889 13.9601 28.1185 13.4039 27.4149 13.4039H26.8667C26.5302 13.4001 26.2061 13.5277 25.9667 13.7584C25.7273 13.9891 25.5926 14.3035 25.5926 14.6317C25.5926 15.3201 26.1607 15.8804 26.8667 15.8883ZM8.22967 8.96967H17.6371C18.3407 8.96967 18.9111 8.41353 18.9111 7.72749C18.9111 7.04146 18.3407 6.48532 17.6371 6.48532H8.22967C7.53176 6.48527 6.96371 7.03266 6.9556 7.71305C6.95555 8.40146 7.52363 8.96176 8.22967 8.96967Z" fill="#6D5ABF"/>
</svg>
