<svg width="48" height="48" viewBox="0 0 48 48" fill="none" xmlns="http://www.w3.org/2000/svg">
<path d="M47.3327 23.3991C47.3327 35.954 37.0769 46.1315 24.4235 46.1315C20.4065 46.1315 16.6328 45.1048 13.3495 43.303L0.666016 47.3334L4.8012 35.1368C2.7152 31.7115 1.51379 27.694 1.51379 23.3991C1.51379 10.8442 11.7706 0.666748 24.4235 0.666748C37.0779 0.666748 47.3327 10.8442 47.3327 23.3991ZM24.4235 4.28704C13.8022 4.28704 5.16261 12.8607 5.16261 23.3991C5.16261 27.581 6.52579 31.4538 8.83165 34.6043L6.4252 41.7023L13.8271 39.3498C16.8682 41.3466 20.5113 42.5112 24.424 42.5112C35.0438 42.5112 43.6849 33.9385 43.6849 23.4002C43.6849 12.8618 35.0443 4.28704 24.4235 4.28704ZM35.9922 28.6346C35.8506 28.4028 35.4768 28.2628 34.9157 27.9844C34.3536 27.7059 31.592 26.3573 31.0787 26.1722C30.5638 25.9865 30.1884 25.8932 29.8145 26.4506C29.4407 27.0085 28.3642 28.2628 28.036 28.6346C27.7083 29.0074 27.3811 29.0541 26.8191 28.7751C26.258 28.4967 24.4489 27.9076 22.3038 26.0099C20.6347 24.5331 19.5074 22.71 19.1797 22.1516C18.8525 21.5942 19.1455 21.2929 19.426 21.0155C19.6791 20.7656 19.9881 20.3647 20.2686 20.0396C20.5502 19.714 20.6435 19.4822 20.8296 19.1099C21.0179 18.7382 20.924 18.413 20.783 18.1336C20.643 17.8551 19.5188 15.1132 19.0511 13.9973C18.5834 12.8825 18.1162 13.0682 17.788 13.0682C17.4608 13.0682 17.0859 13.0215 16.7116 13.0215C16.3372 13.0215 15.7285 13.161 15.2136 13.7184C14.6992 14.2763 13.2489 15.6245 13.2489 18.3659C13.2489 21.1078 15.2602 23.7569 15.5418 24.1282C15.8223 24.4994 19.4255 30.3089 25.1344 32.5401C30.8438 34.7702 30.8438 34.0262 31.8736 33.9328C32.9023 33.84 35.1952 32.5852 35.665 31.2847C36.1316 29.9822 36.1316 28.8669 35.9922 28.6346Z" fill="#6D5ABF"/>
</svg>
